<svg xmlns="http://www.w3.org/2000/svg" width="32" height="32" viewBox="0 0 32 32">
  <rect x="4" y="4" width="24" height="24" rx="2" fill="#0a0e17" stroke="#00f0ff" stroke-width="1.5"/>
  <line x1="10" y1="0" x2="10" y2="4" stroke="#00f0ff" stroke-width="1.5"/>
  <line x1="16" y1="0" x2="16" y2="4" stroke="#00f0ff" stroke-width="1.5"/>
  <line x1="22" y1="0" x2="22" y2="4" stroke="#00f0ff" stroke-width="1.5"/>
  <line x1="10" y1="28" x2="10" y2="32" stroke="#00f0ff" stroke-width="1.5"/>
  <line x1="16" y1="28" x2="16" y2="32" stroke="#00f0ff" stroke-width="1.5"/>
  <line x1="22" y1="28" x2="22" y2="32" stroke="#00f0ff" stroke-width="1.5"/>
  <line x1="0" y1="10" x2="4" y2="10" stroke="#00f0ff" stroke-width="1.5"/>
  <line x1="0" y1="16" x2="4" y2="16" stroke="#00f0ff" stroke-width="1.5"/>
  <line x1="0" y1="22" x2="4" y2="22" stroke="#00f0ff" stroke-width="1.5"/>
  <line x1="28" y1="10" x2="32" y2="10" stroke="#00f0ff" stroke-width="1.5"/>
  <line x1="28" y1="16" x2="32" y2="16" stroke="#00f0ff" stroke-width="1.5"/>
  <line x1="28" y1="22" x2="32" y2="22" stroke="#00f0ff" stroke-width="1.5"/>
  <circle cx="8" cy="8" r="1.5" fill="#00f0ff" opacity="0.6"/>
  <text x="16" y="18" text-anchor="middle" dominant-baseline="middle" fill="#00f0ff" font-size="8" font-family="monospace" font-weight="bold">AM</text>
</svg>
